HIERARCHY
ROOT Hips
{
	OFFSET 0.000000 0.000000 0.000000
	CHANNELS 6 Xposition Yposition Zposition Zrotation Yrotation Xrotation 
	JOINT LHipJoint
	{
		OFFSET 0.000000 0.000000 0.000000
		CHANNELS 3 Zrotation Yrotation Xrotation
		JOINT LeftUpLeg
		{
			OFFSET 1.363060 -1.794630 0.839290
			CHANNELS 3 Zrotation Yrotation Xrotation
			JOINT LeftLeg
			{
				OFFSET 2.448110 -6.726130 0.000000
				CHANNELS 3 Zrotation Yrotation Xrotation
				JOINT LeftFoot
				{
					OFFSET 2.562200 -7.039590 0.000000
					CHANNELS 3 Zrotation Yrotation Xrotation
					JOINT LeftToeBase
					{
						OFFSET 0.157640 -0.433110 2.322550
						CHANNELS 3 Zrotation Yrotation Xrotation
						End Site
						{
							OFFSET 0.000000 0.000000 0.000000
						}
					}
				}
			}
		}
	}
	JOINT RHipJoint
	{
		OFFSET 0.000000 0.000000 0.000000
		CHANNELS 3 Zrotation Yrotation Xrotation
		JOINT RightUpLeg
		{
			OFFSET -1.305520 -1.794630 0.839290
			CHANNELS 3 Zrotation Yrotation Xrotation
			JOINT RightLeg
			{
				OFFSET -2.542530 -6.985550 0.000000
				CHANNELS 3 Zrotation Yrotation Xrotation
				JOINT RightFoot
				{
					OFFSET -2.568260 -7.056230 0.000000
					CHANNELS 3 Zrotation Yrotation Xrotation
					JOINT RightToeBase
					{
						OFFSET -0.164730 -0.452590 2.363150
						CHANNELS 3 Zrotation Yrotation Xrotation
						End Site
						{
							OFFSET 0.000000 0.000000 0.000000
						}
					}
				}
			}
		}
	}
	JOINT LowerBack
	{
		OFFSET 0.000000 0.000000 0.000000
		CHANNELS 3 Zrotation Yrotation Xrotation
		JOINT Spine
		{
			OFFSET 0.028270 2.035590 -0.193380
			CHANNELS 3 Zrotation Yrotation Xrotation
			JOINT Spine1
			{
				OFFSET 0.056720 2.048850 -0.042750
				CHANNELS 3 Zrotation Yrotation Xrotation
				JOINT Neck
				{
					OFFSET 0.000000 0.000000 0.000000
					CHANNELS 3 Zrotation Yrotation Xrotation
					JOINT Neck1
					{
						OFFSET -0.054170 1.746240 0.172020
						CHANNELS 3 Zrotation Yrotation Xrotation
						JOINT Head
						{
							OFFSET 0.104070 1.761360 -0.123970
							CHANNELS 3 Zrotation Yrotation Xrotation
							End Site
							{
								OFFSET 0.000000 0.000000 0.000000
							}
						}
					}
				}
				JOINT LeftShoulder
				{
					OFFSET 0.000000 0.000000 0.000000
					CHANNELS 3 Zrotation Yrotation Xrotation
					JOINT LeftArm
					{
						OFFSET 3.362410 1.200890 -0.311210
						CHANNELS 3 Zrotation Yrotation Xrotation
						JOINT LeftForeArm
						{
							OFFSET 4.983000 -0.000000 -0.000000
							CHANNELS 3 Zrotation Yrotation Xrotation
							JOINT LeftHand
							{
								OFFSET 3.483560 -0.000000 -0.000000
								CHANNELS 3 Zrotation Yrotation Xrotation
								JOINT LeftFingerBase
								{
									OFFSET 0.000000 0.000000 0.000000
									CHANNELS 3 Zrotation Yrotation Xrotation
									JOINT LeftHandIndex1
									{
										OFFSET 0.715260 -0.000000 -0.000000
										CHANNELS 3 Zrotation Yrotation Xrotation
										End Site
										{
											OFFSET 0.000000 0.000000 0.000000
										}
									}
								}
								JOINT LThumb
								{
									OFFSET 0.000000 0.000000 0.000000
									CHANNELS 3 Zrotation Yrotation Xrotation
									End Site
									{
										OFFSET 0.000000 0.000000 0.000000
									}
								}
							}
						}
					}
				}
				JOINT RightShoulder
				{
					OFFSET 0.000000 0.000000 0.000000
					CHANNELS 3 Zrotation Yrotation Xrotation
					JOINT RightArm
					{
						OFFSET -3.136600 1.374050 -0.404650
						CHANNELS 3 Zrotation Yrotation Xrotation
						JOINT RightForeArm
						{
							OFFSET -5.241900 -0.000000 -0.000000
							CHANNELS 3 Zrotation Yrotation Xrotation
							JOINT RightHand
							{
								OFFSET -3.444170 -0.000000 -0.000000
								CHANNELS 3 Zrotation Yrotation Xrotation
								JOINT RightFingerBase
								{
									OFFSET 0.000000 0.000000 0.000000
									CHANNELS 3 Zrotation Yrotation Xrotation
									JOINT RightHandIndex1
									{
										OFFSET -0.622530 -0.000000 -0.000000
										CHANNELS 3 Zrotation Yrotation Xrotation
										End Site
										{
											OFFSET 0.000000 0.000000 0.000000
										}
									}
								}
								JOINT RThumb
								{
									OFFSET 0.000000 0.000000 0.000000
									CHANNELS 3 Zrotation Yrotation Xrotation
									End Site
									{
										OFFSET 0.000000 0.000000 0.000000
									}
								}
							}
						}
					}
				}
			}
		}
	}
}
MOTION
Frames: 11
Frame Time: 0.033333
-0.027228 17.141674 -0.027228 -0.075553 -20.814165 3.690399 -0.417695 17.017692 12.031143 -19.196796 -14.408841 -11.630317 19.023093 -19.174581 -29.854338 1.011902 13.003330 79.375115 0.000000 0.000000 0.000000 1.595945 -32.089859 -13.601757 49.292372 10.602742 -1.227060 -27.436113 3.337933 36.210884 0.211565 9.117677 -17.669768 0.000000 0.000000 0.000000 -2.255972 5.465518 6.357624 -4.822219 4.530459 13.809162 7.010258 4.428159 -15.332693 12.815599 -0.748365 -11.053479 -1.904081 -0.106930 -9.308651 0.000000 0.000000 0.000000 -3.732258 13.462335 17.739573 -78.981674 -5.156872 -27.933912 -143.225055 -69.379458 178.537126 9.689775 -6.474081 -0.758598 9.880075 -6.357590 -0.000000 0.000000 0.000000 0.000000 0.000000 0.000000 0.000000 -0.906451 -14.877174 2.550742 56.677680 12.562504 16.980450 49.770194 58.111658 0.148098 1.212272 5.233075 0.073902 1.210941 5.235307 0.000000 0.000000 0.000000 0.000000 0.000000 0.000000 0.000000 
-0.023823 17.167636 0.125273 0.006791 -20.537975 3.439081 0.739965 16.775941 11.235236 -21.123376 -13.738036 -9.786180 18.603825 -18.932800 -29.160022 1.015182 12.712516 77.577399 0.000000 0.000000 0.000000 0.749295 -31.311703 -13.829551 48.277040 9.579665 -0.740916 -25.915320 2.304939 36.080383 0.252267 9.181527 -19.125227 0.000000 0.000000 0.000000 -2.442871 5.330617 7.174581 -4.805017 4.412296 12.555893 6.988256 4.283048 -14.410569 12.575380 -0.761778 -10.605602 -1.878133 -0.096347 -8.912985 0.000000 0.000000 0.000000 -3.302281 13.035547 17.947360 -79.268925 -5.288296 -27.817397 -143.268572 -69.686347 178.520119 9.955163 -6.699582 -0.767468 10.149603 -6.580777 -0.000000 0.000000 0.000000 0.000000 0.000000 0.000000 0.000000 -1.168788 -14.738200 2.471928 57.252319 12.708368 17.001748 50.023280 58.569845 0.147570 1.207911 5.208488 0.073642 1.206625 5.210690 0.000000 0.000000 0.000000 0.000000 0.000000 0.000000 0.000000 
-0.018149 17.195416 0.277161 0.066495 -20.196846 3.181545 1.835566 16.507009 10.391138 -22.898744 -12.980111 -7.994184 18.054321 -18.648119 -28.395168 1.093548 12.476229 75.771710 0.000000 0.000000 0.000000 -0.073448 -30.414391 -14.036585 47.166782 8.541132 -0.256912 -24.292737 1.218484 35.856829 0.309677 9.191858 -20.509028 0.000000 0.000000 0.000000 -2.608494 5.175593 7.995591 -4.752303 4.276876 11.340494 6.950280 4.123628 -13.504747 12.321824 -0.773375 -10.174800 -1.843047 -0.085312 -8.505439 0.000000 0.000000 0.000000 -2.866654 12.600757 18.149885 -79.557614 -5.421517 -27.688338 -143.314169 -70.003075 178.502799 10.222671 -6.928996 -0.776517 10.421456 -6.807691 -0.000000 0.000000 0.000000 0.000000 0.000000 0.000000 0.000000 -1.445009 -14.610870 2.385181 57.830501 12.857082 17.023698 50.285177 59.025534 0.147177 1.204969 5.181408 0.073450 1.203739 5.183581 0.000000 0.000000 0.000000 0.000000 0.000000 0.000000 0.000000 
-0.010253 17.224569 0.428034 -0.056415 -19.068452 2.532060 3.029201 15.977144 9.542067 -24.455679 -12.011338 -5.894414 17.136082 -18.388302 -27.618488 1.343581 12.289085 74.020911 0.000000 0.000000 0.000000 -1.327516 -28.260437 -15.296501 45.580275 5.913768 1.448573 -21.861922 -0.778053 34.776936 0.659271 8.573219 -22.104407 0.000000 0.000000 0.000000 -2.563859 4.610474 9.480631 -4.604481 3.766486 10.076692 6.456453 3.675023 -13.076704 12.515224 -0.762088 -9.562985 -1.601642 -0.043621 -8.058807 0.000000 0.000000 0.000000 -1.860443 12.471870 18.485715 -79.821330 -5.345289 -27.521882 -143.267671 -70.283025 178.484631 10.492407 -7.165096 -0.786084 10.695949 -7.040876 -0.000000 0.000000 0.000000 0.000000 0.000000 0.000000 0.000000 -3.285509 -15.512311 1.040615 59.591827 15.403412 10.397116 55.886152 45.343623 0.066337 1.218582 5.027210 0.033017 1.214989 5.029069 0.000000 0.000000 0.000000 0.000000 0.000000 0.000000 0.000000 
-0.000701 17.254686 0.577528 -0.216128 -17.734506 1.847782 4.125865 15.312510 8.618695 -25.798690 -10.979700 -3.823020 16.127411 -18.093721 -26.776062 1.620140 12.149919 72.303511 0.000000 0.000000 0.000000 -2.558807 -25.711835 -16.612957 43.717928 3.089621 3.311499 -19.082863 -2.907077 33.318953 1.015783 7.851281 -23.580746 0.000000 0.000000 0.000000 -2.465481 3.980166 11.023989 -4.422278 3.197754 8.817036 6.005060 3.202704 -13.133292 12.647189 -0.767162 -8.534765 -1.415074 -0.015362 -7.489971 0.000000 0.000000 0.000000 -0.807776 12.225353 19.098976 -80.108136 -5.037646 -27.371423 -143.251393 -70.580131 178.465827 10.767966 -7.407043 -0.795995 10.976545 -7.279680 -0.000000 0.000000 0.000000 0.000000 0.000000 0.000000 0.000000 -5.075916 -16.769860 -1.382799 60.951129 18.923589 5.178591 58.491119 28.007237 -0.006221 1.098523 4.448868 -0.003217 1.094388 4.450387 0.000000 0.000000 0.000000 0.000000 0.000000 0.000000 0.000000 
0.011713 17.285814 0.726604 -0.384814 -16.457696 1.300266 5.044677 14.632568 7.676462 -26.893424 -10.000141 -2.009142 15.115042 -17.739677 -25.860308 1.866558 12.048968 70.581792 0.000000 0.000000 0.000000 -3.595505 -23.251749 -17.573617 41.725364 0.605317 4.899061 -16.125369 -4.844067 31.678387 1.281423 7.267590 -24.912961 0.000000 0.000000 0.000000 -2.393169 3.454576 12.319708 -4.053794 2.743436 7.560338 5.749198 2.808447 -12.788165 12.478539 -0.803341 -7.717948 -1.441598 -0.022627 -6.886518 0.000000 0.000000 0.000000 -0.198121 11.721491 19.572413 -80.391604 -4.882892 -27.257001 -143.263775 -70.919265 178.444377 11.055912 -7.651156 -0.807271 11.269928 -7.520338 -0.000000 0.000000 0.000000 0.000000 0.000000 0.000000 0.000000 -5.894052 -17.312987 -2.802427 61.735406 20.741676 3.880818 59.036655 20.270293 -0.025174 0.974333 3.780809 -0.012653 0.971074 3.782053 0.000000 0.000000 0.000000 0.000000 0.000000 0.000000 0.000000 
0.025842 17.317107 0.874206 -0.544171 -15.074434 0.756195 5.841837 13.863065 6.678598 -27.822702 -8.998966 -0.267685 14.058670 -17.338912 -24.898646 2.121093 11.990592 68.911555 0.000000 0.000000 0.000000 -4.524552 -20.571358 -18.468382 39.508364 -1.897290 6.550291 -12.925678 -6.723700 29.724038 1.540962 6.635365 -26.073434 0.000000 0.000000 0.000000 -2.292335 2.912949 13.583053 -3.677440 2.286753 6.325908 5.498930 2.408068 -12.575458 12.251275 -0.841034 -6.774434 -1.482249 -0.033306 -6.247208 0.000000 0.000000 0.000000 0.397332 11.095000 20.132533 -80.676452 -4.683014 -27.149487 -143.290361 -71.280930 178.421724 11.347746 -7.898356 -0.819198 11.567565 -7.763791 -0.000000 0.000000 0.000000 0.000000 0.000000 0.000000 0.000000 -6.629995 -17.897097 -4.523964 62.642364 22.753361 3.093068 59.283053 11.813451 -0.034476 0.874022 3.010253 -0.017272 0.871871 3.011214 -0.000000 0.000000 0.000000 0.000000 0.000000 0.000000 0.000000 
0.040870 17.348209 1.020319 -0.679864 -13.600496 0.273222 6.503767 12.994187 5.598319 -28.606086 -7.997965 1.377767 12.994525 -16.890475 -23.897240 2.368783 11.966692 67.298293 0.000000 0.000000 0.000000 -5.314269 -17.743201 -19.278329 37.098297 -4.354782 8.218390 -9.527664 -8.480921 27.493688 1.790086 5.961658 -27.043358 0.000000 0.000000 0.000000 -2.179070 2.426193 14.896936 -3.161821 1.925628 4.772496 4.937922 2.064441 -11.976066 11.128026 -0.456766 -4.940826 0.088822 0.247905 -7.714945 0.000000 0.000000 0.000000 1.034852 10.111926 20.683155 -80.886509 -4.705602 -27.036640 -143.385245 -71.681232 178.400531 11.626079 -8.146152 -0.830378 11.851808 -8.007852 -0.000000 0.000000 0.000000 0.000000 0.000000 0.000000 0.000000 -6.801614 -18.741841 -6.189161 63.535614 24.438257 2.726715 60.776321 8.565753 0.587844 -2.336143 -11.173761 0.295548 -2.389532 -11.174387 -0.000000 0.000000 0.000000 0.000000 0.000000 0.000000 0.000000 
0.056814 17.378836 1.164679 -0.780932 -12.086607 -0.181185 7.037363 12.060384 4.483317 -29.258146 -7.005421 2.929223 11.940058 -16.398028 -22.869316 2.607162 11.972788 65.753239 0.000000 0.000000 0.000000 -5.948002 -14.834033 -19.937493 34.526700 -6.719262 9.893537 -6.007993 -10.044315 25.041248 2.026558 5.258965 -27.804718 0.000000 0.000000 0.000000 -2.061570 1.983958 16.113030 -2.652249 1.620947 3.329508 4.453200 1.762526 -11.531066 9.983783 -0.083134 -3.102660 1.503657 0.524870 -9.039907 0.000000 0.000000 0.000000 1.584068 8.970454 21.300429 -81.099117 -4.714580 -26.902826 -143.487967 -72.102483 178.378873 11.904451 -8.396626 -0.841834 12.136395 -8.254338 -0.000000 0.000000 0.000000 0.000000 0.000000 0.000000 0.000000 -6.776062 -19.520069 -8.015951 64.658480 26.093024 3.060547 61.696017 5.018401 2.029749 -4.600834 -24.193245 1.039823 -4.970593 -24.186135 0.000000 0.000000 0.000000 0.000000 0.000000 0.000000 0.000000 
0.073406 17.408993 1.307740 -0.896235 -10.469612 -0.317506 7.341254 11.262700 3.578642 -29.596999 -6.423359 3.775855 10.737162 -15.860022 -21.550168 2.694603 11.826295 63.754028 0.000000 0.000000 0.000000 -6.572634 -11.758732 -19.704981 30.823984 -9.260480 11.344440 0.235458 -11.509274 20.494278 2.202781 4.794433 -29.279238 0.000000 0.000000 0.000000 -1.762064 1.442971 16.421503 -2.505501 1.195595 3.196449 4.422953 1.329684 -11.262047 9.868090 -0.064064 -3.039565 1.589904 0.549699 -9.326779 0.000000 0.000000 0.000000 1.560087 8.543085 21.416149 -81.257130 -4.694277 -26.573523 -143.465081 -72.407737 178.417397 12.007612 -8.618494 -0.821701 12.236886 -8.477654 -0.000000 0.000000 0.000000 0.000000 0.000000 0.000000 0.000000 -6.790833 -19.789951 -7.728480 64.326739 25.776181 3.138632 63.145253 8.276453 1.792841 -4.264683 -22.794265 0.916195 -4.576708 -22.788774 0.000000 0.000000 0.000000 0.000000 0.000000 0.000000 0.000000 
0.089782 17.438310 1.448783 -0.856533 -8.867318 -0.302672 7.445627 10.422421 2.588840 -29.897771 -5.878200 4.470951 9.586910 -15.264136 -20.194410 2.764817 11.683047 61.782528 0.000000 0.000000 0.000000 -6.754858 -8.638485 -19.048877 26.755161 -11.390054 12.565909 6.765985 -12.390206 15.680844 2.457020 4.072396 -30.330151 0.000000 0.000000 0.000000 -1.591583 0.930372 16.533073 -2.390353 0.767041 3.067568 4.407749 0.884956 -10.958672 9.773205 -0.052718 -3.030862 1.639811 0.567955 -9.592210 0.000000 0.000000 0.000000 1.523437 8.107370 21.508453 -81.410219 -4.686090 -26.232353 -143.441003 -72.726540 178.458709 12.098385 -8.838213 -0.800126 12.324620 -8.698979 0.000000 0.000000 0.000000 0.000000 0.000000 0.000000 0.000000 -6.798728 -20.033587 -7.344062 64.030751 25.337820 3.272722 64.511446 11.886104 1.498581 -3.847274 -20.718350 0.763134 -4.088599 -20.714744 0.000000 0.000000 0.000000 0.000000 0.000000 0.000000 0.000000 
